<?xml version="1.0" standalone="no"?>
<!DOCTYPE svg PUBLIC "-//W3C//DTD SVG 20010904//EN"
 "http://www.w3.org/TR/2001/REC-SVG-20010904/DTD/svg10.dtd">
<svg version="1.0" xmlns="http://www.w3.org/2000/svg"
 width="638.000000pt" height="638.000000pt" viewBox="0 0 638.000000 638.000000"
 preserveAspectRatio="xMidYMid meet">
<metadata>
Created by potrace 1.11, written by Peter Selinger 2001-2013
</metadata>
<g transform="translate(0.000000,638.000000) scale(0.100000,-0.100000)"
fill="#000000" stroke="none">
<path d="M3008 6265 c-2 -1 -37 -6 -78 -9 -104 -9 -302 -42 -429 -70 -98 -22
-309 -85 -356 -106 -11 -5 -51 -21 -90 -36 -78 -30 -325 -148 -395 -189 -266
-157 -481 -324 -685 -535 -84 -87 -103 -108 -197 -224 -77 -96 -238 -327 -238
-343 0 -4 -9 -19 -20 -33 -11 -14 -20 -28 -20 -32 0 -3 80 34 178 83 142 71
195 103 267 164 112 94 165 121 281 140 40 6 114 32 130 46 8 6 11 22 8 38
-16 77 202 374 312 426 121 57 336 -16 497 -170 l29 -27 73 21 c245 73 451
-43 542 -306 46 -136 39 -346 -16 -451 -29 -55 -82 -109 -127 -129 -21 -10
-50 -26 -64 -35 -14 -9 -38 -19 -54 -22 -16 -3 -30 -7 -32 -9 -2 -1 -11 -46
-20 -100 -17 -93 -17 -97 1 -117 29 -33 59 -24 125 34 102 91 218 134 413 152
l68 7 97 102 c99 104 150 181 172 265 17 60 19 76 25 215 3 66 8 130 10 142
10 46 83 55 105 13 10 -18 18 -79 20 -137 0 -13 5 -23 11 -23 6 0 24 -10 41
-21 17 -12 88 -45 158 -74 232 -94 350 -181 414 -307 43 -86 60 -170 52 -255
-8 -95 -46 -158 -133 -224 -29 -22 -53 -44 -53 -49 0 -5 13 -24 29 -42 l29
-33 134 33 c201 49 227 48 242 -3 8 -27 -14 -67 -39 -71 -28 -4 -126 -29 -205
-51 -71 -20 -70 -17 -53 -103 8 -44 9 -104 2 -248 -2 -54 0 -76 11 -86 9 -8
50 -16 105 -20 153 -11 235 -49 277 -129 22 -42 25 -107 15 -282 -2 -35 1 -40
18 -39 29 1 138 56 188 95 157 120 178 296 61 508 -15 25 -29 51 -34 56 -19
26 -17 55 6 80 12 14 29 25 37 25 7 0 48 -18 91 -41 83 -44 108 -47 231 -35
132 13 188 -24 230 -149 16 -48 24 -230 11 -273 -2 -9 -7 -39 -11 -66 -3 -27
-22 -108 -41 -180 -76 -288 -77 -289 -69 -436 3 -74 8 -206 11 -294 5 -150 7
-160 30 -185 129 -139 125 -528 -7 -605 -70 -41 -230 -6 -277 62 -62 89 -53
247 24 444 27 69 30 98 12 99 -7 0 -22 3 -33 5 -32 7 -212 7 -224 -1 -6 -3
-11 -22 -11 -40 0 -40 -22 -58 -85 -71 -22 -4 -43 -8 -47 -9 -5 -2 -12 -3 -17
-4 -5 0 -9 -25 -10 -53 -3 -188 -20 -266 -66 -315 -14 -15 -25 -32 -25 -36 0
-14 71 -137 78 -137 4 1 18 7 31 14 32 18 59 9 76 -25 21 -39 19 -44 -18 -86
-59 -68 -64 -82 -73 -203 -13 -190 -14 -182 24 -192 26 -7 37 -19 60 -66 15
-31 44 -88 64 -127 20 -38 39 -91 43 -117 l6 -48 57 36 c189 120 346 247 522
424 80 80 173 179 205 220 33 41 62 77 66 80 9 9 124 173 149 215 13 22 28 42
32 43 4 2 8 7 8 12 0 5 20 41 43 82 73 122 155 300 215 463 69 188 133 448
156 635 34 265 27 664 -14 885 -5 28 -12 66 -15 85 -17 106 -99 398 -140 495
-6 17 -27 66 -45 110 -322 775 -1005 1418 -1805 1698 -206 72 -394 122 -542
142 -21 3 -47 7 -58 10 -11 2 -49 7 -85 10 -36 4 -76 9 -90 12 -26 5 -506 13
-512 8z"/>
<path d="M1868 5410 c-30 -25 -80 -98 -143 -210 -16 -27 -80 -98 -110 -122
-17 -13 -45 -21 -82 -24 -31 -2 -63 -10 -72 -17 -31 -27 -155 -74 -214 -82
-69 -9 -134 -36 -182 -76 -102 -84 -155 -131 -155 -139 0 -4 33 -9 73 -12 50
-3 89 -13 122 -29 60 -29 149 -115 235 -228 75 -99 95 -121 113 -121 6 1 43
30 81 65 95 88 114 88 199 0 35 -36 68 -65 74 -65 7 0 15 9 18 20 11 36 38 41
230 44 104 2 153 -7 230 -44 94 -45 98 -43 110 50 5 43 4 46 -31 68 -33 22
-36 27 -31 58 7 44 35 78 100 126 83 62 108 89 141 158 27 58 31 76 32 165 2
113 -17 208 -50 250 -30 38 -79 36 -148 -4 -102 -59 -99 -54 -104 -169 -8
-199 -54 -344 -127 -401 -28 -22 -92 -24 -167 -6 -120 30 -153 72 -154 200 0
121 45 247 125 346 27 34 27 84 1 135 -17 32 -66 94 -75 94 -1 0 -19 -13 -39
-30z"/>
<path d="M670 4632 c-119 -60 -198 -112 -260 -171 -38 -37 -55 -65 -84 -138
-77 -197 -133 -395 -166 -583 -21 -123 -38 -270 -31 -270 3 0 25 17 49 39 48
44 51 62 26 149 -22 73 -15 182 14 239 26 49 79 96 129 111 51 16 178 8 251
-16 l63 -20 9 21 c35 83 120 310 130 347 15 53 14 107 -1 163 -6 21 -10 70
-10 108 0 47 -4 69 -12 69 -7 0 -55 -22 -107 -48z"/>
<path d="M3441 4625 c-18 -30 -42 -64 -53 -77 -88 -100 -102 -128 -62 -128 9
0 26 -13 39 -28 13 -16 46 -37 72 -47 26 -10 77 -31 111 -47 l64 -29 61 16
c118 30 337 135 337 162 0 18 -158 92 -325 153 -77 28 -152 58 -167 66 -14 7
-30 14 -35 14 -5 0 -24 -25 -42 -55z"/>
<path d="M955 4430 c-10 -16 -18 -168 -29 -517 -1 -31 -9 -50 -28 -70 l-27
-28 21 -50 c31 -73 105 -181 143 -211 18 -14 73 -38 122 -53 83 -26 90 -27
120 -13 31 15 36 14 80 -8 27 -13 80 -47 119 -76 90 -67 112 -76 150 -59 16 7
92 39 169 70 179 74 181 74 240 130 28 25 69 60 93 77 25 19 42 40 43 52 0 12
2 32 4 46 3 14 7 43 10 65 3 22 33 95 66 162 33 68 67 142 75 165 14 39 13 44
-2 55 -25 18 -124 7 -339 -37 -165 -34 -204 -26 -199 39 2 27 8 27 -216 -2
-157 -21 -313 -16 -371 11 -57 27 -125 96 -188 191 -29 44 -52 68 -56 61z"/>
<path d="M2970 4273 c-65 -43 -155 -152 -176 -213 -4 -14 -8 -72 -9 -130 0
-85 -4 -111 -18 -134 -27 -40 -85 -63 -171 -65 -154 -4 -198 62 -151 229 22
78 24 122 8 127 -7 3 -13 -1 -13 -8 0 -6 -32 -77 -71 -156 -64 -129 -72 -151
-73 -206 -1 -61 -1 -61 52 -115 29 -30 60 -72 69 -94 11 -26 35 -53 77 -85 33
-26 90 -72 125 -102 35 -31 77 -68 95 -83 31 -28 41 -32 83 -30 59 2 101 25
173 94 41 39 96 84 122 100 26 16 48 33 48 36 0 4 -19 19 -43 34 -82 53 -127
112 -127 168 0 11 16 53 36 93 45 87 49 140 25 283 -10 57 -16 139 -15 188 3
93 -1 99 -46 69z"/>
<path d="M3148 4243 c-15 -18 -14 -82 2 -188 33 -224 33 -239 -12 -335 -16
-36 -31 -73 -33 -82 -5 -21 13 -34 185 -132 74 -43 152 -91 174 -107 22 -16
50 -29 63 -29 26 0 227 86 242 104 7 8 -6 30 -45 76 -76 91 -94 144 -94 284
l0 112 -52 10 c-38 7 -56 16 -72 37 -19 25 -19 32 -8 97 6 38 9 76 6 84 -6 15
-95 55 -167 74 -26 7 -47 7 -68 0 -20 -7 -42 -7 -69 0 -31 8 -42 7 -52 -5z"/>
<path d="M3735 3950 c3 -5 17 -10 31 -10 13 0 24 5 24 10 0 6 -14 10 -31 10
-17 0 -28 -4 -24 -10z"/>
<path d="M3791 3822 l-43 -3 4 -48 c5 -50 40 -131 69 -157 16 -14 19 -14 33 9
21 30 49 163 41 188 -5 14 -14 18 -33 17 -15 -2 -47 -4 -71 -6z"/>
<path d="M4025 3784 c-4 -22 -18 -79 -32 -129 -36 -125 -36 -137 5 -149 22 -6
36 -6 44 2 15 15 16 288 1 303 -9 9 -13 2 -18 -27z"/>
<path d="M325 3780 c-3 -6 5 -10 19 -10 14 0 28 5 31 10 3 6 -5 10 -19 10 -14
0 -28 -4 -31 -10z"/>
<path d="M424 3782 c3 -5 23 -13 43 -17 21 -4 81 -24 134 -46 52 -21 99 -39
104 -39 13 0 -37 36 -82 58 -64 33 -213 66 -199 44z"/>
<path d="M366 3641 c-10 -16 3 -51 29 -77 12 -12 55 -39 95 -59 40 -20 77 -41
84 -46 60 -50 92 -69 115 -67 14 1 41 -2 59 -6 63 -15 98 58 51 105 -62 62
-413 183 -433 150z"/>
<path d="M5188 3575 c-2 -2 -42 -7 -88 -11 -47 -3 -86 -7 -88 -9 -2 -2 1 -20
7 -41 46 -174 24 -307 -71 -424 -61 -77 -190 -159 -333 -214 -87 -33 -85 -31
-122 -87 -41 -60 -54 -69 -97 -71 -30 -1 -40 -8 -62 -41 -39 -59 -42 -106 -11
-159 25 -43 178 -207 194 -209 4 0 16 -2 26 -4 10 -2 32 1 50 6 18 6 60 12 93
16 54 5 64 3 83 -16 11 -11 21 -30 21 -41 0 -11 3 -20 8 -21 4 0 63 -3 132 -5
69 -2 149 -6 178 -7 l53 -3 12 44 c14 47 14 65 2 260 -13 200 -9 230 80 538
34 116 39 155 39 284 0 132 -11 207 -33 211 -31 6 -69 8 -73 4z"/>
<path d="M940 3410 c0 -13 7 -20 18 -20 26 0 34 11 21 27 -17 20 -39 16 -39
-7z"/>
<path d="M3905 3391 c-3 -6 -9 -24 -11 -39 -18 -102 -69 -338 -85 -393 -11
-37 -26 -69 -33 -72 -8 -3 -31 7 -52 24 -20 16 -40 29 -45 29 -17 0 -59 -56
-59 -78 0 -13 12 -44 26 -70 18 -31 27 -67 31 -112 5 -66 5 -67 -28 -98 -65
-61 -182 -110 -299 -125 -65 -9 -74 -19 -110 -111 -17 -47 5 -48 93 -5 129 62
319 184 421 270 164 137 158 131 151 158 -12 47 -8 81 11 96 17 13 106 45 144
51 64 11 89 18 127 36 24 11 43 27 43 36 0 8 -15 38 -34 66 -51 78 -101 175
-126 243 -20 55 -26 62 -63 77 -66 24 -94 29 -102 17z"/>
<path d="M2230 3358 c0 -18 27 -44 37 -34 4 4 -3 16 -15 29 -18 17 -22 18 -22
5z"/>
<path d="M4194 3326 c-3 -8 6 -36 19 -62 32 -63 144 -234 154 -234 19 0 75 49
89 78 16 33 15 123 -1 164 -15 38 -69 57 -183 64 -57 4 -74 2 -78 -10z"/>
<path d="M1804 3286 c-45 -18 -87 -36 -93 -40 -20 -13 -11 -34 31 -74 36 -35
49 -40 102 -46 34 -3 82 -9 109 -12 54 -7 59 2 27 46 -11 15 -33 58 -50 94
-16 36 -33 66 -37 66 -4 0 -45 -15 -89 -34z"/>
<path d="M964 3264 c-5 -1 -21 -5 -36 -8 -104 -23 111 -70 240 -53 83 12 84
39 1 53 -29 5 -191 11 -205 8z"/>
<path d="M473 3215 c-8 -22 6 -33 17 -15 13 20 12 30 0 30 -6 0 -13 -7 -17
-15z"/>
<path d="M2421 3170 c1 -33 8 -65 15 -71 13 -11 64 -2 64 12 0 11 -69 119 -76
119 -3 0 -4 -27 -3 -60z"/>
<path d="M835 3062 c1 -91 -15 -205 -36 -270 -13 -39 -53 -117 -74 -142 -25
-31 -26 -50 -2 -51 145 -6 191 -18 242 -64 16 -15 42 -36 58 -45 27 -17 32
-17 66 -3 43 18 203 24 287 11 32 -5 68 -8 81 -6 21 3 20 6 -23 73 -77 122
-100 215 -74 304 5 19 28 64 51 102 42 70 42 76 6 117 -23 24 -60 28 -117 12
-99 -29 -315 -30 -390 -2 -14 5 -36 12 -50 15 -25 6 -25 5 -25 -51z"/>
<path d="M3093 3068 c-34 -57 -68 -170 -55 -183 3 -3 17 16 31 42 23 42 69 85
127 119 17 10 17 12 -6 27 -14 8 -37 19 -51 22 -22 6 -29 1 -46 -27z"/>
<path d="M2690 3027 c0 -14 31 -47 43 -47 13 0 7 29 -9 44 -19 20 -34 21 -34
3z"/>
<path d="M2525 2948 c-10 -26 9 -98 27 -98 5 0 7 20 4 46 -5 51 -21 78 -31 52z"/>
<path d="M422 2938 c2 -6 20 -20 39 -30 34 -18 34 -18 51 3 10 12 15 25 12 30
-8 14 -106 11 -102 -3z"/>
<path d="M3235 2934 c-16 -9 -38 -27 -48 -40 -19 -26 -33 -134 -17 -134 9 0
60 72 109 153 21 34 21 37 4 36 -10 0 -31 -7 -48 -15z"/>
<path d="M168 2812 c-22 -4 -22 -10 0 -44 35 -54 138 -123 167 -112 23 9 64
74 58 90 -12 32 -169 78 -225 66z"/>
<path d="M1846 2813 c-6 -7 0 -37 38 -175 18 -67 43 -168 55 -223 41 -189 47
-202 105 -232 19 -10 32 -11 38 -5 10 10 6 204 -6 251 -27 111 -95 270 -144
337 -27 36 -72 61 -86 47z"/>
<path d="M2416 2789 c-4 -19 -8 -77 -11 -129 -3 -52 -7 -108 -10 -125 -3 -16
-8 -46 -11 -65 -3 -19 -19 -75 -35 -124 -17 -49 -29 -103 -27 -120 2 -26 8
-16 35 59 17 50 46 130 63 179 37 104 46 203 26 289 -17 71 -23 79 -30 36z"/>
<path d="M2096 2743 c10 -32 27 -63 35 -63 11 0 17 47 7 64 -13 23 -49 21 -42
-1z"/>
<path d="M2964 2598 c-4 -6 -8 -37 -10 -69 -3 -67 -17 -99 -44 -99 -11 0 -24
-9 -30 -20 -14 -26 -80 -213 -77 -217 4 -3 196 288 219 331 15 29 15 32 0 49
-26 29 -50 39 -58 25z"/>
<path d="M2695 2558 c-2 -7 -14 -51 -25 -98 -11 -47 -39 -142 -62 -212 -25
-77 -38 -134 -34 -145 7 -17 8 -17 22 2 13 17 79 214 89 263 1 9 8 35 13 57
19 69 24 132 13 140 -6 3 -13 0 -16 -7z"/>
<path d="M3999 2490 c-20 -16 -46 -51 -58 -79 l-21 -50 31 -76 c27 -69 37
-126 27 -164 -6 -29 33 -21 155 29 177 73 169 62 120 156 -22 44 -46 95 -53
114 -20 53 -29 61 -51 49 -16 -8 -25 -5 -48 20 -36 39 -57 39 -102 1z"/>
<path d="M780 2299 c-111 -31 -116 -35 -145 -116 -14 -41 -42 -104 -61 -140
-20 -36 -33 -68 -29 -71 3 -3 40 -6 82 -5 75 0 78 1 105 34 45 53 76 112 88
164 6 26 17 59 24 74 7 14 17 36 20 49 7 19 4 22 -21 21 -15 0 -44 -5 -63 -10z"/>
<path d="M2997 2222 c-21 -23 -21 -32 -3 -32 20 0 41 29 29 41 -6 6 -15 3 -26
-9z"/>
<path d="M1181 2207 c-6 -6 -11 -32 -11 -58 0 -37 7 -57 37 -100 100 -146 155
-214 200 -244 87 -58 166 -148 184 -206 24 -84 1 -216 -59 -334 -26 -52 -123
-188 -141 -200 -6 -3 -11 -32 -11 -64 0 -59 -19 -137 -45 -187 -8 -16 -11 -31
-7 -35 62 -54 293 -199 316 -199 23 0 159 145 211 225 18 28 46 64 62 80 90
91 229 294 258 374 26 74 22 82 -54 119 -146 70 -210 176 -265 438 -13 66 -27
139 -31 164 -12 81 -22 93 -95 106 -36 6 -150 36 -255 67 -206 59 -276 72
-294 54z"/>
<path d="M3363 2138 c-30 -14 -29 -28 1 -28 21 0 56 22 56 36 0 8 -35 3 -57
-8z"/>
<path d="M2024 2025 c-12 -31 39 -275 78 -374 24 -60 72 -121 95 -121 11 0 13
8 9 38 -3 20 -8 62 -11 92 -4 30 -15 96 -25 145 -21 98 -28 139 -29 171 -1 16
-14 27 -50 43 -59 25 -60 25 -67 6z"/>
<path d="M3037 2016 c-89 -27 -96 -31 -69 -45 45 -24 242 -35 263 -14 14 14
-64 83 -94 82 -12 0 -57 -10 -100 -23z"/>
<path d="M2485 1917 c-16 -23 -20 -67 -6 -67 12 0 28 21 40 52 13 35 -12 46
-34 15z"/>
<path d="M4390 1904 c-118 -42 -129 -51 -104 -93 27 -46 68 -46 150 1 67 37
97 73 84 98 -16 30 -32 29 -130 -6z"/>
<path d="M2778 1879 c-16 -9 -68 -92 -111 -176 -26 -50 -16 -65 95 -163 181
-158 267 -191 430 -166 65 10 90 34 128 123 18 43 44 104 58 135 27 63 25 110
-6 148 -19 23 -39 26 -215 34 -101 5 -209 26 -306 61 -51 18 -51 18 -73 4z"/>
<path d="M3591 1753 c-45 -64 -44 -70 22 -101 88 -40 90 -40 153 38 31 38 54
76 51 84 -3 8 -29 16 -64 20 -32 4 -72 8 -90 11 -29 4 -36 -1 -72 -52z"/>
<path d="M2391 1680 c-5 -16 -8 -30 -6 -30 3 0 11 14 20 30 9 17 11 30 6 30
-5 0 -14 -13 -20 -30z"/>
<path d="M3454 1512 c-52 -130 -97 -194 -161 -231 -14 -8 -16 -14 -7 -28 6
-10 20 -22 30 -28 11 -5 59 -35 107 -65 48 -30 97 -61 110 -68 12 -7 67 -41
122 -76 l100 -63 0 -44 c0 -44 0 -44 59 -73 33 -16 73 -29 90 -30 55 -2 41 31
-53 124 -100 98 -127 132 -169 215 -37 75 -51 124 -53 195 -2 53 -4 57 -66
120 -34 35 -63 68 -63 71 0 4 -7 10 -16 13 -11 4 -19 -5 -30 -32z"/>
<path d="M2547 1508 c-67 -90 -65 -92 97 -104 86 -7 88 -6 77 14 -12 22 -128
122 -141 122 -5 0 -20 -15 -33 -32z"/>
<path d="M4226 1434 c-37 -7 -89 -20 -115 -28 -25 -9 -59 -18 -76 -21 -60 -12
-91 -17 -135 -24 -40 -5 -47 -10 -65 -46 -13 -26 -20 -61 -20 -102 0 -55 3
-65 29 -92 28 -30 100 -71 123 -71 6 0 27 29 48 64 88 151 220 238 385 254
l75 8 -76 37 c-85 41 -78 40 -173 21z"/>
<path d="M925 1364 c-40 -53 -42 -60 -17 -72 20 -11 232 -9 250 2 7 4 19 20
27 37 12 22 13 29 3 30 -38 2 -76 10 -133 28 -36 12 -71 21 -79 21 -8 0 -31
-21 -51 -46z"/>
<path d="M2580 1280 c-21 -13 4 -44 210 -253 104 -105 198 -205 211 -220 18
-24 28 -28 60 -26 52 4 63 -10 84 -106 40 -186 77 -260 155 -311 44 -30 62
-31 175 -19 124 15 364 12 408 -3 57 -21 96 -58 91 -87 l-4 -24 72 20 c89 24
163 47 201 61 l29 11 -38 19 c-21 10 -41 18 -46 18 -16 0 -115 79 -147 117
-18 21 -46 68 -64 105 -35 75 -32 73 -185 133 l-93 36 -34 -30 -35 -31 -43 22
c-59 30 -188 115 -347 228 -192 136 -296 204 -381 248 -113 59 -256 106 -279
92z"/>
<path d="M2460 1156 c0 -18 96 -267 135 -352 54 -116 136 -240 202 -308 45
-46 163 -136 177 -136 4 0 28 -16 53 -35 36 -27 55 -35 89 -35 23 0 45 4 48 8
3 5 -16 22 -41 38 -26 16 -51 34 -57 39 -6 6 -29 23 -51 39 -46 34 -171 133
-199 158 -20 18 -20 18 3 48 l22 30 -32 48 c-18 26 -36 49 -39 52 -10 8 -170
225 -228 311 -49 71 -82 110 -82 95z"/>
<path d="M2307 1035 c-9 -30 2 -228 18 -334 20 -123 74 -289 138 -420 27 -54
50 -63 207 -86 25 -3 63 -10 85 -15 22 -4 47 -8 55 -8 8 0 33 -3 55 -6 97 -15
330 -22 515 -17 l65 2 -50 24 c-33 17 -61 23 -82 20 -89 -13 -109 -16 -123
-20 -8 -2 -67 -5 -131 -6 -112 -2 -119 -1 -165 26 -27 16 -96 76 -154 134
-171 171 -272 329 -365 566 -25 66 -50 129 -54 140 l-8 20 -6 -20z"/>
<path d="M2047 799 c-16 -22 -41 -47 -55 -56 -15 -9 -58 -48 -96 -87 -65 -67
-67 -71 -43 -74 37 -5 121 35 146 69 51 68 104 189 84 189 -5 0 -21 -18 -36
-41z"/>
<path d="M4557 701 c-23 -21 -58 -52 -77 -70 -47 -43 -146 -88 -208 -97 -29
-3 -52 -10 -52 -14 0 -14 45 -19 130 -16 119 5 215 40 270 97 35 37 41 65 21
101 -23 41 -38 41 -84 -1z"/>
<path d="M2131 623 c-12 -16 -30 -40 -42 -55 -30 -39 -107 -85 -169 -101 l-55
-15 60 -27 c82 -37 253 -105 264 -105 5 0 5 19 1 43 -12 63 -19 144 -20 220 0
37 -4 67 -9 67 -5 0 -19 -12 -30 -27z"/>
</g>
</svg>
